<svg width="1080" height="1080" viewBox="0 0 1080 1080" fill="none" xmlns="http://www.w3.org/2000/svg">
<g clip-path="url(#clip0_803_5248)">
<path d="M585.923 508.92V461.825L545.068 438.272L504.214 461.825V508.92L545.068 532.474L585.923 508.92Z" fill="#3EBA8D"/>
<path d="M504.214 461.825L545.068 485.378V532.474L504.214 508.92V461.825Z" fill="#139970"/>
<path d="M545.068 485.378L585.923 461.825V508.92L545.068 532.474V485.378Z" fill="#075138"/>
<path d="M540.006 164.012L865.715 351.775V727.3L540.006 915.062L214.296 727.3V351.775L540.006 164.012ZM540.006 136L190 337.769V741.306L540.006 943.075L890.011 741.306V337.769L540.006 136ZM887.844 742.553L887.9 736.074L709.846 631.189L529.847 732.708L527.935 936.11L539.994 943.064L561.439 930.702L552.33 925.338L554.011 746.935L709.581 659.19L863.471 749.838L863.405 756.625L887.833 742.542L887.844 742.553ZM540.006 136L517.832 148.781L526.233 153.726L524.552 332.129L368.982 419.873L215.081 329.226L215.136 323.277L190.718 337.36L190.663 343L368.717 447.885L548.716 346.367L550.639 142.137L540.017 136.011L540.006 136ZM867.484 324.778L867.384 335.34L711.814 423.085L557.924 332.438L559.604 154.035L565.518 150.701L541.089 136.629L535.44 139.819L533.495 346.223L711.548 451.108L890.011 350.45V337.78L867.484 324.789V324.778ZM890.011 715.755L880.438 721.152L726.548 630.505L728.229 452.102L883.799 364.357L890.011 368.021V339.855L884.064 336.345L704.065 437.864L702.12 644.268L878.294 748.05L890 741.295V715.744L890.011 715.755ZM190 727.819V741.306L211.091 753.469L211.179 743.734L366.749 655.989L520.639 746.637L518.959 925.04L513.775 927.965L538.204 942.048L543.123 939.267L545.068 732.863L367.015 627.977L190 727.819ZM190 362.514L198.124 357.933L352.015 448.581L350.334 626.984L194.775 714.718L190 711.903V740.07L194.51 742.73L374.509 641.211L376.454 434.807L200.976 331.433L190 337.769V362.503V362.514Z" fill="url(#paint0_linear_803_5248)"/>
<path d="M706.209 633.253V584.171L703.711 555.044C647.194 589.933 525.238 584.9 454.14 563.885C404.984 549.36 395.113 556.126 375.205 567.77L374.586 633.076L537.695 731.649L576.361 709.067C579.357 707.886 581.811 707.047 583.005 706.937C587.658 706.495 605.079 703.659 608.163 712.908C611.247 722.146 600.967 741.107 605.587 747.023C610.219 752.95 622.245 752.409 624.887 751.317C627.363 750.279 639.522 745.246 630.779 728.05C622.035 710.855 622.555 695.458 630.259 684.675C634.228 679.123 640.771 672.777 646.486 668.119L657.584 661.64C659.762 663.285 668.361 670.249 673.446 664.665C678.586 659.014 680.642 657.479 679.106 649.776L684.213 646.1L706.198 633.264L706.209 633.253Z" fill="url(#paint1_linear_803_5248)"/>
<path d="M685.252 645.317L680.145 648.992V649.014L684.224 646.078L706.21 633.242V633.076L685.252 645.317Z" fill="#3EBA8D"/>
<path d="M625.915 750.555C623.273 751.659 611.236 752.188 606.615 746.262C601.984 740.335 612.275 721.384 609.191 712.146C606.107 702.908 588.697 705.733 584.033 706.175C582.839 706.285 580.385 707.124 577.389 708.305L576.361 709.078C579.357 707.897 581.811 707.058 583.005 706.948C587.658 706.506 605.079 703.67 608.163 712.919C611.247 722.157 600.967 741.118 605.587 747.034C610.219 752.961 622.245 752.42 624.887 751.328C625.694 750.985 627.551 750.213 629.353 748.734C627.905 749.727 626.567 750.279 625.915 750.555Z" fill="#3EBA8D"/>
<path d="M658.623 660.868L647.525 667.347C647.304 667.523 647.083 667.722 646.862 667.909L657.606 661.64C659.718 663.23 667.831 669.775 672.96 665.117C667.831 668.174 660.602 662.358 658.634 660.868H658.623Z" fill="#3EBA8D"/>
<path d="M698.218 567.77C698.218 567.77 622.654 611.819 492.309 591.798C492.309 591.798 618.797 623.883 698.218 567.77Z" fill="white"/>
<path d="M536.999 461.825V430.701H553.148V461.759L545.068 464.982L536.999 461.825Z" fill="#203B68"/>
<path d="M536.999 425.458C539.475 427.224 542.515 428.262 545.787 428.262C548.462 428.262 550.971 427.566 553.148 426.352V416.827H536.999V425.458Z" fill="#0C1E39"/>
<path d="M536.999 430.701V461.825L545.068 464.982V430.701H536.999Z" fill="#6E87C4"/>
<path d="M536.999 425.458C539.298 427.092 542.073 428.107 545.079 428.251V416.838H536.999V425.469V425.458Z" fill="#5875B3"/>
<path d="M545.068 440.8C553.444 440.8 560.234 434.02 560.234 425.657C560.234 417.294 553.444 410.514 545.068 410.514C536.692 410.514 529.902 417.294 529.902 425.657C529.902 434.02 536.692 440.8 545.068 440.8Z" fill="url(#paint2_linear_803_5248)"/>
</g>
<defs>
<linearGradient id="paint0_linear_803_5248" x1="968.194" y1="804.306" x2="133.331" y2="286.521" gradientUnits="userSpaceOnUse">
<stop stop-color="#795CA7"/>
<stop offset="0.15" stop-color="#9B86BF"/>
<stop offset="0.26" stop-color="#455EAB"/>
<stop offset="0.68" stop-color="#6475B9"/>
<stop offset="0.84" stop-color="#3EBA8D"/>
<stop offset="1" stop-color="#139970"/>
</linearGradient>
<linearGradient id="paint1_linear_803_5248" x1="540.392" y1="752.012" x2="540.392" y2="555.044" gradientUnits="userSpaceOnUse">
<stop stop-color="#3EBA8D"/>
<stop offset="0.31" stop-color="#3BB78A"/>
<stop offset="0.53" stop-color="#33AE81"/>
<stop offset="0.71" stop-color="#269F73"/>
<stop offset="0.87" stop-color="#13895E"/>
<stop offset="1" stop-color="#007349"/>
</linearGradient>
<linearGradient id="paint2_linear_803_5248" x1="533.959" y1="413.119" x2="547.731" y2="428.702" gradientUnits="userSpaceOnUse">
<stop stop-color="#6475B9"/>
<stop offset="0.66" stop-color="#5469B1"/>
<stop offset="0.84" stop-color="#5066AF"/>
<stop offset="0.98" stop-color="#475FAB"/>
<stop offset="1" stop-color="#455EAB"/>
</linearGradient>
<clipPath id="clip0_803_5248">
<rect width="700" height="807.075" fill="white" transform="translate(190 136)"/>
</clipPath>
</defs>
</svg>
